<svg width="6" height="4" viewBox="0 0 6 4" fill="none" xmlns="http://www.w3.org/2000/svg">
<path d="M0.428572 4C0.348981 4 0.270962 3.97931 0.203258 3.94026C0.135554 3.90121 0.0808397 3.84533 0.0452456 3.77889C0.00965153 3.71244 -0.00541577 3.63806 0.00173193 3.56408C0.00887963 3.49009 0.0379599 3.41943 0.0857144 3.36L2.65714 0.16C2.69706 0.110322 2.74883 0.0700002 2.80834 0.0422291C2.86785 0.014458 2.93347 0 3 0C3.06653 0 3.13215 0.014458 3.19166 0.0422291C3.25117 0.0700002 3.30294 0.110322 3.34286 0.16L5.91428 3.36C5.96204 3.41943 5.99112 3.49009 5.99827 3.56408C6.00542 3.63806 5.99035 3.71244 5.95475 3.77889C5.91916 3.84533 5.86445 3.90121 5.79674 3.94026C5.72904 3.97931 5.65102 4 5.57143 4L0.428572 4Z" fill="#404040"/>
</svg>
