<svg width="24" height="24" viewBox="0 0 24 24" fill="none" xmlns="http://www.w3.org/2000/svg">
<path d="M22.6982 11.8752H20H19.875V12.0002C19.875 16.3512 16.351 19.8752 12 19.8752C10.511 19.8752 9.12245 19.4549 7.93987 18.7372L9.22299 17.454C10.0522 17.8863 11.0026 18.1252 12 18.1252C15.379 18.1252 18.125 15.3793 18.125 12.0002V11.8752H18H15.3018L19 8.17702L22.6982 11.8752ZM5.875 12.0002V12.1252H6H8.69822L5 15.8235L1.30178 12.1252H4H4.125V12.0002C4.125 7.64928 7.64904 4.12524 12 4.12524C13.489 4.12524 14.8775 4.5456 16.0601 5.26333L14.777 6.54645C13.9478 6.11416 12.9974 5.87524 12 5.87524C8.62096 5.87524 5.875 8.62121 5.875 12.0002Z" fill="#0076F5" stroke="white" stroke-width="0.25"/>
</svg>
